<svg id="OBJECTS" xmlns="http://www.w3.org/2000/svg" viewBox="0 0 512 512"><defs><style>.cls-1{fill:#f24e29;}.cls-2{fill:#1f3b53;}.cls-3{fill:#fff;}</style></defs><path class="cls-1" d="M391.18,242.69H358.71V149.05H329.36V122.5h91.09v26.55H391.18Z"/><path class="cls-2" d="M399.46,243.54V180.86h16.93v49h24.14v13.68Z"/><path class="cls-2" d="M141.47,206.91a4,4,0,0,1-.84-.08,4.64,4.64,0,0,1-3.73-5.4c1.71-9.27-12.05-28.33-25.35-46.76-20.18-28-41-56.88-31.73-77.7,5.07-11.32,12.29-18,21.46-19.73,23.66-4.58,54.26,24.92,81.28,50.95,15.95,15.38,34.05,32.75,41.2,32.23a1.6,1.6,0,0,0,1.31-.76,4.64,4.64,0,1,1,7.41,5.58,10.82,10.82,0,0,1-8,4.43c-10.8.85-25.41-12.66-48.37-34.79C152,91.62,122,62.68,103.05,66.35c-6.12,1.18-11,5.9-14.76,14.41-7.13,15.94,13,43.85,30.78,68.48,15.77,21.84,29.38,40.71,27,53.87A4.63,4.63,0,0,1,141.47,206.91Z"/><polygon class="cls-1" points="399.26 388.67 291.94 122.47 103.11 155.38 106.64 167.96 103.11 155.38 92.77 175.54 71.47 173.15 93.67 480.94 194.71 482.3 399.26 388.67"/><path class="cls-3" d="M143.76,448.39c-2.61-11.27-4.94-22.6-7.42-33.91l-7-34c-4.64-22.67-8.94-45.4-13.24-68.13s-8.4-45.49-12.26-68.3l-5.78-34.22c-1.77-11.44-3.68-22.84-5.32-34.3,2.61,11.27,4.94,22.61,7.42,33.91l7,34c4.64,22.67,8.94,45.4,13.24,68.13s8.39,45.49,12.25,68.3l5.78,34.22C140.2,425.53,142.12,436.94,143.76,448.39Z"/><path class="cls-3" d="M93.67,480.94a129.48,129.48,0,0,1,11.6-9.55q6-4.47,12.26-8.55t12.78-7.73a129.72,129.72,0,0,1,13.45-6.72,126.25,126.25,0,0,1-11.6,9.56c-4,3-8.08,5.84-12.26,8.54s-8.44,5.29-12.79,7.73A130.57,130.57,0,0,1,93.67,480.94Z"/><path class="cls-3" d="M194.71,482.3A138,138,0,0,1,181,475.23q-6.63-3.84-13-8.07t-12.47-8.88a136.09,136.09,0,0,1-11.8-9.89,136.87,136.87,0,0,1,13.68,7.07c4.42,2.56,8.76,5.24,13,8.08s8.4,5.78,12.47,8.88A136,136,0,0,1,194.71,482.3Z"/><path class="cls-3" d="M103.12,155.38c4.28,13.49,8.3,27.06,12.47,40.58l12,40.7c8,27.14,15.7,54.37,23.39,81.59s15.16,54.52,22.41,81.87l10.87,41c3.47,13.72,7.08,27.4,10.42,41.15-4.29-13.49-8.31-27.05-12.48-40.58l-12-40.7c-8-27.13-15.7-54.36-23.38-81.59s-15.16-54.52-22.41-81.87l-10.87-41C110.07,182.81,106.46,169.14,103.12,155.38Z"/><path class="cls-3" d="M157,173.72a10.33,10.33,0,1,0,12.42,7.69A10.33,10.33,0,0,0,157,173.72Zm3.58,15.2a5.29,5.29,0,1,1,3.93-6.36A5.29,5.29,0,0,1,160.6,188.92Z"/><path class="cls-3" d="M261.29,155.63a10.33,10.33,0,1,0,12.43,7.68A10.33,10.33,0,0,0,261.29,155.63Zm3.59,15.2a5.29,5.29,0,1,1,3.93-6.36A5.29,5.29,0,0,1,264.88,170.83Z"/><path class="cls-2" d="M160.52,188.51a11.6,11.6,0,0,1-1.84-.15,4.64,4.64,0,1,1,1.42-9.17,1.58,1.58,0,0,0,1.47-.37c5.53-4.59,6.32-29.69,7-51.83,1.18-37.5,2.51-80,22.64-93.22,7.81-5.13,17.62-5.41,29.14-.84,21.21,8.4,26.44,43.67,31.51,77.78,3.34,22.49,6.79,45.74,14.48,51.19a4.64,4.64,0,0,1-5.37,7.57c-10.92-7.74-14.33-30.75-18.29-57.4-4.46-30-9.52-64.08-25.75-70.52-8.67-3.43-15.42-3.44-20.63,0-16.1,10.57-17.4,52.26-18.45,85.75-1,31.88-2,51.77-10.36,58.68A10.75,10.75,0,0,1,160.52,188.51Z"/><path class="cls-3" d="M359.7,398.45l-5.86-.63a142.91,142.91,0,0,1-28.43-6c-8.07-2.59-14.86-4.68-20.32-6.35-22.94-7.05-25.89-7.95-25.89-15.61a10.55,10.55,0,0,1,10.52-10.53l20.68,3.2a.53.53,0,0,0,.48-.16.76.76,0,0,0,.11-.14.56.56,0,0,0-.11-.66L256.1,306.76A10.53,10.53,0,1,1,271,291.88L295.08,316a.57.57,0,1,0,.8-.8,10.53,10.53,0,0,1,14.89-14.9l7.29,7.29a.57.57,0,0,0,.8-.8,10.52,10.52,0,0,1,7.43-18,10.42,10.42,0,0,1,7.45,3.07L339.9,298a.58.58,0,0,0,.81,0,.57.57,0,0,0,0-.8,10.53,10.53,0,0,1,14.88-14.89L371.19,298a147.83,147.83,0,0,1,26.11,35.33l9.54,18Z"/><path class="cls-2" d="M256.5,292.27a9.93,9.93,0,0,1,14.08,0l24.1,24.09a1.13,1.13,0,1,0,1.6-1.6,10,10,0,0,1,0-14.09,10,10,0,0,1,14.09,0l7.29,7.28a1.13,1.13,0,0,0,1.6-1.6,10,10,0,0,1,7-17,9.85,9.85,0,0,1,7,2.92l6.16,6.16a1.15,1.15,0,0,0,1.61,0,1.13,1.13,0,0,0,0-1.6,10,10,0,0,1,14.08-14.09l15.6,15.61a147,147,0,0,1,26,35.2l9.35,17.65-46.65,46.65-5.59-.6a143.38,143.38,0,0,1-28.32-6c-8.07-2.59-14.87-4.68-20.32-6.35-23.34-7.17-25.5-8-25.5-15.07a10,10,0,0,1,9.88-10l20.67,3.19a1.12,1.12,0,0,0,1-.32.86.86,0,0,0,.21-.29,1.13,1.13,0,0,0-.21-1.31L256.5,306.36a10,10,0,0,1,0-14.09m-.8-.8a11.09,11.09,0,0,0,0,15.69l54.78,54.78-20.76-3.2a11.11,11.11,0,0,0-11.09,11.09c0,10,5.26,9.22,46.6,22.5a143.6,143.6,0,0,0,28.54,6.05l6.14.66,47.62-47.62L397.8,333a148.51,148.51,0,0,0-26.21-35.47L356,282a11.09,11.09,0,1,0-15.68,15.69l-6.17-6.17a11.09,11.09,0,1,0-15.68,15.69l-7.29-7.29a11.1,11.1,0,0,0-15.69,15.7l-24.09-24.1a11.09,11.09,0,0,0-15.69,0Z"/><path class="cls-2" d="M359.91,400.87h-.2l-6.13-.66a144.91,144.91,0,0,1-28.91-6.13c-8.05-2.59-14.83-4.67-20.28-6.34-23.38-7.18-27.59-8.47-27.59-17.9a12.94,12.94,0,0,1,12.92-12.92,1.27,1.27,0,0,1,.28,0l15.23,2.35-50.82-50.83a12.94,12.94,0,0,1,0-18.28h0a12.92,12.92,0,0,1,18.27,0L290.4,307.9v-.18a12.91,12.91,0,0,1,12.9-12.92h0a12.8,12.8,0,0,1,9.13,3.78l.92.91a1.09,1.09,0,0,1,0-.18A12.93,12.93,0,0,1,335.23,290a12.88,12.88,0,0,1,3.77-9.32,12.49,12.49,0,0,1,9.15-3.78,12.8,12.8,0,0,1,9.13,3.78l15.6,15.6a149.8,149.8,0,0,1,26.53,35.92l9.74,18.38a1.84,1.84,0,0,1-.32,2.15L361.2,400.33A1.8,1.8,0,0,1,359.91,400.87Zm-70.4-39.17a8.15,8.15,0,0,0-7.92,8.13c0,5.47.57,6.06,24.2,13.32,5.44,1.67,12.21,3.74,20.35,6.36a141.22,141.22,0,0,0,27.95,5.93l4.73.51,45.07-45.08-8.71-16.45a145.31,145.31,0,0,0-25.68-34.77l-15.61-15.6a8,8,0,0,0-5.75-2.38h0a8.12,8.12,0,0,0-5.72,13.87,3,3,0,0,1-2.1,5.06h0a2.94,2.94,0,0,1-2.09-.87l-6.16-6.16a8.08,8.08,0,0,0-5.72-2.38h0a8.12,8.12,0,0,0-5.75,13.87,3,3,0,0,1-2.09,5.06h0a3,3,0,0,1-2.1-.87L309.08,302a8.12,8.12,0,0,0-5.76-2.38h0a8,8,0,0,0-5.73,2.38,8.14,8.14,0,0,0,0,11.5,3,3,0,0,1,0,4.19,3,3,0,0,1-4.19,0l-24.09-24.09a8.11,8.11,0,0,0-11.49,0h0a8.14,8.14,0,0,0,0,11.5l54.78,54.79a2.94,2.94,0,0,1,.54,3.43,2.79,2.79,0,0,1-.55.76,3,3,0,0,1-2.54.83Z"/><path class="cls-3" d="M379.57,410.59a5.17,5.17,0,0,1-7.31,0l-12.35-12.35,46.82-46.82,12.35,12.35a5.17,5.17,0,0,1,0,7.31Z"/><path class="cls-2" d="M406.73,352.22l11.95,11.95a4.6,4.6,0,0,1,0,6.51l-39.51,39.51a4.6,4.6,0,0,1-6.51,0l-12-11.95,46-46m0-1.6-47.62,47.62L371.86,411a5.73,5.73,0,0,0,8.11,0l39.51-39.51a5.73,5.73,0,0,0,0-8.11l-12.75-12.75Z"/><path class="cls-2" d="M375.91,414.5a7.49,7.49,0,0,1-5.34-2.21l-12.76-12.76a1.83,1.83,0,0,1,0-2.58l47.63-47.63a1.83,1.83,0,0,1,2.58,0l12.76,12.76a7.56,7.56,0,0,1,0,10.69l-39.52,39.52A7.51,7.51,0,0,1,375.91,414.5ZM363.3,398.24,374,408.9a2.76,2.76,0,0,0,3.91,0l39.52-39.52a2.78,2.78,0,0,0,0-3.92l-10.66-10.65Z"/><path class="cls-2" d="M315.53,335.6h0a1.12,1.12,0,0,1-1.6,0l-19.16-19.16,1.6-1.6L315.53,334A1.12,1.12,0,0,1,315.53,335.6Z"/><path class="cls-2" d="M314.73,337.76a2.91,2.91,0,0,1-2.09-.86l-19.17-19.16a1.84,1.84,0,0,1,0-2.59l1.6-1.6a1.9,1.9,0,0,1,2.59,0l19.16,19.16a3,3,0,0,1,0,4.19A2.93,2.93,0,0,1,314.73,337.76Zm-.5-2.46h0Z"/><path class="cls-2" d="M330,318.74h0a1.13,1.13,0,0,1-1.6,0L317.66,308l1.6-1.6L330,317.14A1.13,1.13,0,0,1,330,318.74Z"/><path class="cls-2" d="M329.24,320.9a3,3,0,0,1-2.1-.87l-10.78-10.78a1.83,1.83,0,0,1,0-2.58l1.6-1.6a1.82,1.82,0,0,1,2.59,0l10.78,10.78a2.95,2.95,0,0,1,0,4.18A3,3,0,0,1,329.24,320.9Z"/><path class="cls-2" d="M351.63,309h0a1.13,1.13,0,0,1-1.6,0l-10.78-10.78,1.6-1.6,10.78,10.78A1.13,1.13,0,0,1,351.63,309Z"/><path class="cls-2" d="M350.83,311.13a3,3,0,0,1-2.09-.87L338,299.48a1.83,1.83,0,0,1-.53-1.29,1.86,1.86,0,0,1,.53-1.3l1.6-1.59a1.82,1.82,0,0,1,2.59,0l10.78,10.78a3,3,0,0,1-2.1,5.05Zm-.49-2.47h0Z"/><polygon class="cls-3" points="245.3 282.83 211.1 265.21 227.68 248.63 245.3 282.83"/><polygon class="cls-3" points="285.45 282.83 303.07 248.63 319.66 265.21 285.45 282.83"/><polygon class="cls-3" points="245.3 322.98 227.68 357.19 211.1 340.6 245.3 322.98"/><polygon class="cls-3" points="265.38 272 253.65 235.35 277.1 235.35 265.38 272"/><polygon class="cls-3" points="234.47 302.91 197.83 314.63 197.83 291.18 234.47 302.91"/></svg>