<svg id="OBJECTS" xmlns="http://www.w3.org/2000/svg" viewBox="0 0 750 500"><defs><style>.cls-1{fill:#f24e29;}.cls-2{fill:#1f3b53;}.cls-3{fill:#fff;}</style></defs><path class="cls-1" d="M344.29,305.94H311v-96H280.9V182.7h93.4v27.23h-30Z"/><path class="cls-1" d="M481.19,258a63.42,63.42,0,0,1-3.29,21.24,41.57,41.57,0,0,1-9.53,15.59,40.33,40.33,0,0,1-15.09,9.57,57.81,57.81,0,0,1-20,3.25,53.72,53.72,0,0,1-19-3.25,42.25,42.25,0,0,1-15.05-9.57,42.68,42.68,0,0,1-9.9-15.59,59.72,59.72,0,0,1-3.5-21.24q0-15.86,5.77-26.81a39.19,39.19,0,0,1,16.52-16.69q10.75-5.73,25.67-5.73a51,51,0,0,1,24.45,5.73,41.3,41.3,0,0,1,16.81,16.69Q481.19,242.14,481.19,258Zm-61.88,0a56.29,56.29,0,0,0,1.44,13.78,16.87,16.87,0,0,0,4.59,8.51,11.79,11.79,0,0,0,8.3,2.91,11.32,11.32,0,0,0,8.18-2.91,17.28,17.28,0,0,0,4.43-8.51A58.58,58.58,0,0,0,447.64,258a57,57,0,0,0-1.39-13.66,16.2,16.2,0,0,0-4.47-8.26,11.94,11.94,0,0,0-8.31-2.78q-7.5,0-10.83,6.24T419.31,258Z"/><path class="cls-1" d="M546.77,281.58a33.53,33.53,0,0,0,8.17-.93c2.48-.62,5.06-1.4,7.76-2.36v24a70.23,70.23,0,0,1-11.42,3.83,66.59,66.59,0,0,1-15.39,1.48,42.75,42.75,0,0,1-16.35-2.91,21.69,21.69,0,0,1-11-10.12q-3.92-7.2-3.92-20.1V235.13H493.07v-13.4l14.67-10.37,8.51-20.06h21.58v19.13h23.44v24.7H537.83v37.18q0,4.63,2.36,6.95A9,9,0,0,0,546.77,281.58Z"/><path class="cls-1" d="M626,208.75q18.13,0,28.33,9t10.2,25.58v62.63H641.68l-6.32-12.64h-.67a45.88,45.88,0,0,1-8.31,8.22,28.63,28.63,0,0,1-9.73,4.63,52.44,52.44,0,0,1-13.4,1.48,32.14,32.14,0,0,1-14.84-3.37A24.56,24.56,0,0,1,578,294.06q-3.79-6.84-3.79-17.29,0-15.33,10.62-22.76t30.77-8.34l15.93-.51v-1.35q0-6.39-3.16-9.1a12.61,12.61,0,0,0-8.47-2.7,46.5,46.5,0,0,0-12.61,2,108,108,0,0,0-14,5.1l-9.52-21.74a74.59,74.59,0,0,1,18.71-6.41A114.68,114.68,0,0,1,626,208.75Zm5.74,54.54-7.59.33q-9.1.35-12.77,3.17a9.56,9.56,0,0,0-3.67,8q0,4.89,2.62,7.2a10,10,0,0,0,6.91,2.32,14.85,14.85,0,0,0,10.24-3.79,12.59,12.59,0,0,0,4.26-9.86Z"/><path class="cls-1" d="M719.91,305.94H687V174.78h33Z"/><path class="cls-2" d="M310.78,389.81V325.54h17.36v50.25h24.75v14Z"/><path class="cls-2" d="M409.73,364.8A33.19,33.19,0,0,1,408,375.88a21.83,21.83,0,0,1-5,8.13,21.07,21.07,0,0,1-7.87,5,30.09,30.09,0,0,1-10.42,1.69,27.94,27.94,0,0,1-9.91-1.69,21.73,21.73,0,0,1-13-13.12A31.2,31.2,0,0,1,360,364.8a29.78,29.78,0,0,1,3-14,20.47,20.47,0,0,1,8.62-8.71,28.13,28.13,0,0,1,13.39-3,26.6,26.6,0,0,1,12.74,3,21.51,21.51,0,0,1,8.77,8.71A28.28,28.28,0,0,1,409.73,364.8Zm-32.26,0a29.48,29.48,0,0,0,.74,7.19,8.93,8.93,0,0,0,2.4,4.44,6.14,6.14,0,0,0,4.33,1.51,5.88,5.88,0,0,0,4.26-1.51,9,9,0,0,0,2.31-4.44,30.56,30.56,0,0,0,.73-7.19,29.58,29.58,0,0,0-.73-7.12,8.41,8.41,0,0,0-2.33-4.31,6.2,6.2,0,0,0-4.33-1.45,5.92,5.92,0,0,0-5.65,3.25C378,357.34,377.47,360.55,377.47,364.8Z"/><path class="cls-2" d="M467.1,364.8a33.19,33.19,0,0,1-1.71,11.08,21.83,21.83,0,0,1-5,8.13,21.07,21.07,0,0,1-7.87,5,30.09,30.09,0,0,1-10.42,1.69,27.94,27.94,0,0,1-9.91-1.69,22.07,22.07,0,0,1-7.85-5,22.36,22.36,0,0,1-5.17-8.13,31.43,31.43,0,0,1-1.82-11.08,29.66,29.66,0,0,1,3-14,20.47,20.47,0,0,1,8.62-8.71,28.09,28.09,0,0,1,13.38-3,26.61,26.61,0,0,1,12.75,3,21.57,21.57,0,0,1,8.77,8.71A28.28,28.28,0,0,1,467.1,364.8Zm-32.27,0a29.43,29.43,0,0,0,.75,7.19,8.93,8.93,0,0,0,2.4,4.44,6.14,6.14,0,0,0,4.33,1.51,5.9,5.9,0,0,0,4.26-1.51,9.09,9.09,0,0,0,2.31-4.44,30.61,30.61,0,0,0,.72-7.19,29.63,29.63,0,0,0-.72-7.12,8.48,8.48,0,0,0-2.33-4.31,6.2,6.2,0,0,0-4.33-1.45,5.92,5.92,0,0,0-5.65,3.25Q434.83,358.42,434.83,364.8Z"/><path class="cls-2" d="M494.18,321.41v26.9q0,3-.24,6.75c-.16,2.48-.41,4.73-.73,6.75h.35l2.56-3.87q1.53-2.32,2.76-3.87L510.05,340h19.17l-17.28,21.19,18.38,28.62H510.67L499.76,372l-5.58,4.27v13.58H476.9v-68.4Z"/><path class="cls-2" d="M546.45,386.78a7.8,7.8,0,0,1-3.72-.84,5.84,5.84,0,0,1-2.42-2.45,8,8,0,0,1-.86-3.88,15.5,15.5,0,0,1,.67-4.54,13.62,13.62,0,0,1,1.94-4,9.88,9.88,0,0,1,3.07-2.84,8,8,0,0,1,4.08-1.05,6.17,6.17,0,0,1,4.16,1.23,4.22,4.22,0,0,1,1.41,3.33,5.46,5.46,0,0,1-.66,2.66,6,6,0,0,1-2,2.09,10.76,10.76,0,0,1-3.45,1.37,21.5,21.5,0,0,1-4.93.49H543c0,.19,0,.39,0,.6s0,.43,0,.62a4.76,4.76,0,0,0,1.05,3.27,3.9,3.9,0,0,0,3.11,1.2,8.79,8.79,0,0,0,2.6-.38,18.91,18.91,0,0,0,2.63-1.05v2.82a16.77,16.77,0,0,1-2.69,1A12.08,12.08,0,0,1,546.45,386.78Zm-3-11H544a16.44,16.44,0,0,0,3.83-.4,6.25,6.25,0,0,0,2.67-1.23,2.71,2.71,0,0,0,1-2.15,1.94,1.94,0,0,0-.61-1.49,2.61,2.61,0,0,0-1.83-.57,4.06,4.06,0,0,0-2.23.7,6.77,6.77,0,0,0-2,2A10,10,0,0,0,543.45,375.73Z"/><path class="cls-2" d="M564.48,386.78a8.17,8.17,0,0,1-3.65-.78,5.67,5.67,0,0,1-2.47-2.33,7.88,7.88,0,0,1-.89-3.93,17.63,17.63,0,0,1,.43-3.89,14,14,0,0,1,1.27-3.45,11.28,11.28,0,0,1,2.05-2.74,8.64,8.64,0,0,1,6.17-2.48,12.33,12.33,0,0,1,2.6.26,10.87,10.87,0,0,1,2.28.72l-1,2.78a13.76,13.76,0,0,0-1.73-.63,7.27,7.27,0,0,0-2.08-.28,4.79,4.79,0,0,0-2.67.77,6.81,6.81,0,0,0-2.06,2.11,11.11,11.11,0,0,0-1.31,3.07,13.89,13.89,0,0,0-.46,3.63,5.24,5.24,0,0,0,.48,2.33,3.5,3.5,0,0,0,1.37,1.5,4.15,4.15,0,0,0,2.13.53,7.65,7.65,0,0,0,2.38-.36,19.4,19.4,0,0,0,2.2-.88v2.89a10.82,10.82,0,0,1-5,1.16Z"/><path class="cls-2" d="M580.7,386.73a7.52,7.52,0,0,1-3.74-.88,6,6,0,0,1-2.44-2.52,8.2,8.2,0,0,1-.86-3.86,16.82,16.82,0,0,1,.39-3.63,14.44,14.44,0,0,1,1.18-3.33,10.63,10.63,0,0,1,1.95-2.74,8.56,8.56,0,0,1,2.69-1.85,8.38,8.38,0,0,1,3.42-.67,7.56,7.56,0,0,1,3.77.88,6,6,0,0,1,2.42,2.53,8.44,8.44,0,0,1,.85,3.93,16.32,16.32,0,0,1-.39,3.56,13.75,13.75,0,0,1-1.16,3.3,10.53,10.53,0,0,1-1.92,2.74,8.42,8.42,0,0,1-2.69,1.86A8.53,8.53,0,0,1,580.7,386.73Zm.24-2.83a4.22,4.22,0,0,0,1.91-.45,5.19,5.19,0,0,0,1.63-1.28,7.66,7.66,0,0,0,1.26-2,12,12,0,0,0,.8-2.64,16.59,16.59,0,0,0,.29-3.17,6.19,6.19,0,0,0-.35-2.06,3.49,3.49,0,0,0-1.15-1.59,3.27,3.27,0,0,0-2.11-.62,4.38,4.38,0,0,0-2.1.51,5.34,5.34,0,0,0-1.69,1.4,8.65,8.65,0,0,0-1.25,2.1,13.9,13.9,0,0,0-.78,2.58,15.15,15.15,0,0,0-.27,2.89,4.79,4.79,0,0,0,1,3.21A3.57,3.57,0,0,0,580.94,383.9Z"/><path class="cls-2" d="M592.87,386.44l4-18.92h2.73l-.42,3.62h.16a13,13,0,0,1,1.53-1.86,8.16,8.16,0,0,1,2-1.5,5.45,5.45,0,0,1,2.58-.6,3.9,3.9,0,0,1,3,1.12,5.27,5.27,0,0,1,1.28,3.08h.12a12,12,0,0,1,1.63-2,8.26,8.26,0,0,1,2.16-1.56,5.82,5.82,0,0,1,2.64-.6,4.47,4.47,0,0,1,3.42,1.26A5,5,0,0,1,621,372a12.5,12.5,0,0,1-.09,1.51c-.06.49-.16,1-.28,1.53l-2.41,11.38h-3.45l2.49-11.69c.1-.48.18-.91.23-1.28a7.88,7.88,0,0,0,.08-1,2.58,2.58,0,0,0-.57-1.77,2.23,2.23,0,0,0-1.75-.63,3.79,3.79,0,0,0-1.83.51,6.75,6.75,0,0,0-1.76,1.52,10.89,10.89,0,0,0-1.51,2.49A15.88,15.88,0,0,0,609,378l-1.79,8.48h-3.43l2.47-11.66c.1-.49.18-.92.23-1.29a7.55,7.55,0,0,0,.08-1,2.86,2.86,0,0,0-.53-1.84,2.12,2.12,0,0,0-1.72-.65,3.85,3.85,0,0,0-1.82.5,6.24,6.24,0,0,0-1.78,1.54,12,12,0,0,0-1.55,2.56,16.42,16.42,0,0,0-1.13,3.6l-1.74,8.21Z"/><path class="cls-2" d="M623.8,386.44l4-18.92h2.73l-.41,3.62h.15a13.8,13.8,0,0,1,1.54-1.86,8.11,8.11,0,0,1,2-1.5,5.52,5.52,0,0,1,2.59-.6,3.93,3.93,0,0,1,3,1.12,5.26,5.26,0,0,1,1.27,3.08h.12a12,12,0,0,1,1.64-2,8.05,8.05,0,0,1,2.15-1.56,5.86,5.86,0,0,1,2.65-.6,4.46,4.46,0,0,1,3.41,1.26,5,5,0,0,1,1.19,3.58,10.74,10.74,0,0,1-.1,1.51,13.08,13.08,0,0,1-.28,1.53l-2.4,11.38h-3.45l2.49-11.69c.1-.48.18-.91.23-1.28a7.88,7.88,0,0,0,.08-1,2.58,2.58,0,0,0-.57-1.77,2.24,2.24,0,0,0-1.75-.63,3.73,3.73,0,0,0-1.83.51,6.59,6.59,0,0,0-1.76,1.52,10.9,10.9,0,0,0-1.52,2.49,17.08,17.08,0,0,0-1.09,3.41l-1.78,8.48h-3.44l2.47-11.66c.11-.49.18-.92.24-1.29a7.35,7.35,0,0,0,.07-1,2.86,2.86,0,0,0-.53-1.84,2.1,2.1,0,0,0-1.72-.65,3.88,3.88,0,0,0-1.82.5,6.21,6.21,0,0,0-1.77,1.54,11.66,11.66,0,0,0-1.56,2.56,17,17,0,0,0-1.13,3.6l-1.73,8.21Z"/><path class="cls-2" d="M662.51,386.78a7.73,7.73,0,0,1-3.71-.84,5.8,5.8,0,0,1-2.43-2.45,8,8,0,0,1-.86-3.88,15.5,15.5,0,0,1,.67-4.54,13.62,13.62,0,0,1,1.94-4,10,10,0,0,1,3.07-2.84,8,8,0,0,1,4.09-1.05,6.14,6.14,0,0,1,4.15,1.23,4.22,4.22,0,0,1,1.41,3.33,5.46,5.46,0,0,1-.66,2.66,5.88,5.88,0,0,1-2,2.09,10.76,10.76,0,0,1-3.45,1.37,21.41,21.41,0,0,1-4.92.49h-.71c0,.19,0,.39,0,.6s0,.43,0,.62a4.76,4.76,0,0,0,1,3.27,3.9,3.9,0,0,0,3.11,1.2,8.81,8.81,0,0,0,2.61-.38,19.32,19.32,0,0,0,2.62-1.05v2.82a16.77,16.77,0,0,1-2.69,1A12,12,0,0,1,662.51,386.78Zm-3-11H660a16.44,16.44,0,0,0,3.83-.4,6.25,6.25,0,0,0,2.67-1.23,2.71,2.71,0,0,0,1-2.15,1.91,1.91,0,0,0-.61-1.49,2.61,2.61,0,0,0-1.83-.57,4.09,4.09,0,0,0-2.23.7,6.86,6.86,0,0,0-2,2A10,10,0,0,0,659.51,375.73Z"/><path class="cls-2" d="M672.76,386.44l4-18.92h2.73l-.41,3.62h.17a21.21,21.21,0,0,1,1.58-1.94,7.15,7.15,0,0,1,1.89-1.46,5,5,0,0,1,2.42-.56,8.47,8.47,0,0,1,1,.06,6.17,6.17,0,0,1,1,.18l-.76,3.16a7.52,7.52,0,0,0-.85-.17,6.77,6.77,0,0,0-.92-.06,4.52,4.52,0,0,0-2.27.61,7.05,7.05,0,0,0-1.91,1.65,10.72,10.72,0,0,0-1.45,2.37,14,14,0,0,0-.91,2.79l-1.83,8.67Z"/><path class="cls-2" d="M694.65,386.78A8.2,8.2,0,0,1,691,386a5.67,5.67,0,0,1-2.47-2.33,7.88,7.88,0,0,1-.88-3.93,17.63,17.63,0,0,1,.42-3.89,14,14,0,0,1,1.27-3.45,11.32,11.32,0,0,1,2.06-2.74,8.53,8.53,0,0,1,2.76-1.83,8.82,8.82,0,0,1,3.41-.65,12.3,12.3,0,0,1,2.59.26,10.51,10.51,0,0,1,2.28.72l-1,2.78a14.54,14.54,0,0,0-1.74-.63,7.24,7.24,0,0,0-2.07-.28,4.8,4.8,0,0,0-2.68.77,6.79,6.79,0,0,0-2.05,2.11,10.83,10.83,0,0,0-1.32,3.07,14.33,14.33,0,0,0-.46,3.63,5.24,5.24,0,0,0,.48,2.33,3.5,3.5,0,0,0,1.37,1.5,4.15,4.15,0,0,0,2.13.53,7.65,7.65,0,0,0,2.38-.36,20.32,20.32,0,0,0,2.21-.88v2.89a11.88,11.88,0,0,1-2.27.84A11.41,11.41,0,0,1,694.65,386.78Z"/><path class="cls-2" d="M710.84,386.78a7.8,7.8,0,0,1-3.72-.84,5.8,5.8,0,0,1-2.43-2.45,8.15,8.15,0,0,1-.86-3.88,15.84,15.84,0,0,1,.67-4.54,14.14,14.14,0,0,1,1.94-4,9.91,9.91,0,0,1,3.08-2.84,8,8,0,0,1,4.08-1.05,6.17,6.17,0,0,1,4.16,1.23,4.25,4.25,0,0,1,1.4,3.33,5.46,5.46,0,0,1-.66,2.66,5.93,5.93,0,0,1-2,2.09,11,11,0,0,1-3.45,1.37,21.56,21.56,0,0,1-4.93.49h-.7c0,.19,0,.39-.06.6s0,.43,0,.62a4.76,4.76,0,0,0,1,3.27,3.88,3.88,0,0,0,3.1,1.2,8.81,8.81,0,0,0,2.61-.38,19.41,19.41,0,0,0,2.63-1.05v2.82a16.53,16.53,0,0,1-2.7,1A12,12,0,0,1,710.84,386.78Zm-3-11h.52a16.5,16.5,0,0,0,3.83-.4,6.25,6.25,0,0,0,2.67-1.23,2.73,2.73,0,0,0,1-2.15,1.91,1.91,0,0,0-.61-1.49,2.57,2.57,0,0,0-1.83-.57,4.11,4.11,0,0,0-2.23.7,6.86,6.86,0,0,0-2,2A10,10,0,0,0,707.83,375.73Z"/><path class="cls-2" d="M75.83,212.28a4.44,4.44,0,0,1-.62-.05,3.39,3.39,0,0,1-2.71-3.95c1.24-6.76-8.8-20.66-18.5-34.11-14.72-20.4-29.94-41.49-23.15-56.68,3.7-8.26,9-13.1,15.66-14.4,17.26-3.34,39.58,18.18,59.29,37.17,11.64,11.22,24.84,23.89,30.06,23.52a1.15,1.15,0,0,0,.95-.56,3.39,3.39,0,1,1,5.41,4.07,7.86,7.86,0,0,1-5.82,3.23c-7.89.62-18.54-9.23-35.3-25.38-17.6-17-39.49-38.08-53.3-35.41-4.47.87-8,4.31-10.77,10.52-5.2,11.63,9.49,32,22.46,50,11.5,15.93,21.43,29.7,19.67,39.3A3.39,3.39,0,0,1,75.83,212.28Z"/><polygon class="cls-1" points="263.89 344.88 185.6 150.68 47.84 174.69 50.42 183.87 47.84 174.69 40.3 189.39 24.76 187.65 40.95 412.2 114.67 413.19 263.89 344.88"/><path class="cls-3" d="M77.5,388.45c-1.9-8.22-3.6-16.49-5.41-24.74L67,338.91c-3.38-16.53-6.52-33.11-9.66-49.69S51.21,256,48.4,239.38l-4.22-25c-1.29-8.34-2.69-16.67-3.88-25,1.9,8.23,3.6,16.5,5.41,24.74l5.09,24.8c3.38,16.54,6.52,33.12,9.66,49.7s6.12,33.19,8.93,49.84l4.22,25C74.9,371.77,76.3,380.09,77.5,388.45Z"/><path class="cls-3" d="M41,412.2a94.64,94.64,0,0,1,8.47-7c2.92-2.18,5.89-4.26,8.94-6.23s6.16-3.86,9.33-5.65a95.43,95.43,0,0,1,9.81-4.9,93,93,0,0,1-8.46,7c-2.92,2.17-5.9,4.26-9,6.23s-6.16,3.85-9.33,5.64A95.43,95.43,0,0,1,41,412.2Z"/><path class="cls-3" d="M114.67,413.19a99,99,0,0,1-10-5.16q-4.83-2.79-9.49-5.89c-3.1-2.05-6.13-4.22-9.1-6.47a99.3,99.3,0,0,1-8.6-7.22,101.09,101.09,0,0,1,10,5.16c3.22,1.87,6.39,3.82,9.48,5.89s6.13,4.22,9.1,6.48A99.3,99.3,0,0,1,114.67,413.19Z"/><path class="cls-3" d="M47.85,174.69c3.12,9.84,6.06,19.74,9.09,29.6L65.72,234c5.85,19.79,11.46,39.66,17.06,59.52s11.07,39.77,16.36,59.73l7.92,29.93c2.53,10,5.17,20,7.61,30-3.13-9.84-6.07-19.74-9.11-29.6l-8.77-29.7c-5.85-19.79-11.46-39.66-17.06-59.52S68.67,254.6,63.38,234.64l-7.93-29.93C52.92,194.7,50.29,184.72,47.85,174.69Z"/><path class="cls-3" d="M87.17,188.07a7.54,7.54,0,1,0,9.06,5.61A7.54,7.54,0,0,0,87.17,188.07Zm2.61,11.09a3.86,3.86,0,1,1,2.87-4.64A3.86,3.86,0,0,1,89.78,199.16Z"/><path class="cls-3" d="M163.24,174.87a7.54,7.54,0,1,0,9.07,5.61A7.53,7.53,0,0,0,163.24,174.87ZM165.86,186a3.86,3.86,0,1,1,2.87-4.64A3.86,3.86,0,0,1,165.86,186Z"/><path class="cls-2" d="M89.73,198.86a9,9,0,0,1-1.35-.11,3.38,3.38,0,1,1,1-6.69,1.17,1.17,0,0,0,1.08-.27c4-3.35,4.61-21.66,5.11-37.81.86-27.36,1.83-58.37,16.52-68,5.7-3.74,12.85-4,21.26-.62,15.47,6.14,19.29,31.87,23,56.75,2.43,16.41,4.95,33.37,10.56,37.34A3.39,3.39,0,1,1,163,185c-8-5.65-10.46-22.44-13.35-41.87-3.25-21.92-6.94-46.76-18.79-51.45-6.32-2.51-11.24-2.52-15,0-11.75,7.71-12.7,38.12-13.47,62.56-.73,23.25-1.48,37.76-7.56,42.81A7.79,7.79,0,0,1,89.73,198.86Z"/><path class="cls-3" d="M235,352l-4.27-.46a104.92,104.92,0,0,1-20.74-4.4c-5.89-1.89-10.84-3.41-14.82-4.63-16.74-5.14-18.9-5.81-18.9-11.39a7.7,7.7,0,0,1,7.68-7.68l15.09,2.33a.41.41,0,0,0,.35-.11.44.44,0,0,0,.08-.11.41.41,0,0,0-.08-.48l-40-40A7.68,7.68,0,0,1,164.89,272a7.59,7.59,0,0,1,5.42,2.25l17.58,17.57a.41.41,0,0,0,.58-.58,7.7,7.7,0,0,1,0-10.86,7.69,7.69,0,0,1,10.87,0l5.31,5.31a.42.42,0,0,0,.59,0,.41.41,0,0,0,0-.58,7.68,7.68,0,1,1,10.86-10.86l4.49,4.49a.41.41,0,0,0,.59,0,.41.41,0,0,0,0-.58A7.68,7.68,0,1,1,232,267.32l11.38,11.38a107.92,107.92,0,0,1,19,25.78l7,13.15Z"/><path class="cls-2" d="M159.75,274.55a7.27,7.27,0,0,1,10.27,0l17.58,17.58a.83.83,0,1,0,1.17-1.17,7.27,7.27,0,0,1,0-10.28,7.27,7.27,0,0,1,10.28,0l5.31,5.31a.82.82,0,0,0,1.17,0,.83.83,0,0,0,0-1.17,7.26,7.26,0,0,1,5.14-12.4,7.19,7.19,0,0,1,5.13,2.13l4.5,4.5a.83.83,0,1,0,1.17-1.17,7.26,7.26,0,0,1,5.13-12.4,7.21,7.21,0,0,1,5.14,2.12L243.13,279a107.44,107.44,0,0,1,19,25.68l6.81,12.87-34,34-4.08-.44a105,105,0,0,1-20.66-4.38c-5.89-1.9-10.84-3.42-14.82-4.64-17-5.23-18.6-5.86-18.6-11a7.27,7.27,0,0,1,7.2-7.27L199,326.2a.82.82,0,0,0,.71-1.4l-40-40a7.27,7.27,0,0,1,0-10.28m-.59-.58a8.11,8.11,0,0,0,0,11.45l40,40L184,323a8.13,8.13,0,0,0-8.09,8.1c0,7.32,3.84,6.72,34,16.41A104.32,104.32,0,0,0,230.71,352l4.48.48,34.74-34.74-7.1-13.42a108.31,108.31,0,0,0-19.12-25.88L232.33,267a8.09,8.09,0,1,0-11.44,11.44l-4.5-4.49A8.09,8.09,0,1,0,205,285.42l-5.32-5.32a8.1,8.1,0,0,0-11.45,11.45L170.61,274a8.09,8.09,0,0,0-11.45,0Z"/><path class="cls-2" d="M235.19,353.78H235l-4.47-.48a106.17,106.17,0,0,1-21.09-4.48c-5.87-1.88-10.82-3.4-14.79-4.62-17.06-5.24-20.13-6.18-20.13-13.06a9.44,9.44,0,0,1,9.42-9.43l.21,0,11.11,1.71-37.08-37.08a9.43,9.43,0,0,1,0-13.33h0a9.43,9.43,0,0,1,13.33,0L184.48,286v-.13a9.42,9.42,0,0,1,9.41-9.43h0a9.33,9.33,0,0,1,6.66,2.76l.67.66v-.12a9.42,9.42,0,0,1,15.94-6.81,9.38,9.38,0,0,1,2.76-6.8,9.05,9.05,0,0,1,6.67-2.76,9.37,9.37,0,0,1,6.66,2.76l11.38,11.38A109.59,109.59,0,0,1,264,303.67l7.1,13.41a1.34,1.34,0,0,1-.24,1.57l-34.74,34.74A1.33,1.33,0,0,1,235.19,353.78Zm-51.36-28.57a5.94,5.94,0,0,0-5.78,5.93c0,4,.41,4.42,17.66,9.71,4,1.22,8.9,2.74,14.84,4.65a103,103,0,0,0,20.39,4.32l3.45.37,32.88-32.88-6.35-12a105.94,105.94,0,0,0-18.74-25.36L230.8,268.56a5.9,5.9,0,0,0-4.2-1.74h0a5.93,5.93,0,0,0-4.18,10.12,2.15,2.15,0,0,1,0,3.06,2.12,2.12,0,0,1-1.52.63h0a2.12,2.12,0,0,1-1.52-.63l-4.5-4.5a5.86,5.86,0,0,0-4.17-1.73h0a5.93,5.93,0,0,0-4.2,10.12,2.16,2.16,0,0,1-1.52,3.69h0a2.14,2.14,0,0,1-1.53-.63l-5.32-5.32a5.88,5.88,0,0,0-4.19-1.73h0a5.86,5.86,0,0,0-4.18,1.73,6,6,0,0,0,0,8.39,2.17,2.17,0,0,1,0,3.06,2.22,2.22,0,0,1-3.06,0L169.08,275.5a5.93,5.93,0,0,0-8.39,0h0a6,6,0,0,0,0,8.39l40,40a2.16,2.16,0,0,1,.4,2.5,2.24,2.24,0,0,1-.41.56,2.16,2.16,0,0,1-1.85.6Z"/><path class="cls-3" d="M249.53,360.88a3.77,3.77,0,0,1-5.33,0l-9-9,34.16-34.16,9,9a3.77,3.77,0,0,1,0,5.33Z"/><path class="cls-2" d="M269.35,318.29l8.72,8.72a3.38,3.38,0,0,1,0,4.75l-28.83,28.82a3.36,3.36,0,0,1-4.75,0l-8.72-8.71,33.58-33.58m0-1.17L234.6,351.87l9.31,9.3a4.18,4.18,0,0,0,5.91,0l28.83-28.83a4.18,4.18,0,0,0,0-5.91l-9.3-9.31Z"/><path class="cls-2" d="M246.86,363.73a5.45,5.45,0,0,1-3.9-1.62l-9.3-9.3a1.34,1.34,0,0,1,0-1.89l34.74-34.74a1.34,1.34,0,0,1,1.89,0l9.3,9.3a5.52,5.52,0,0,1,0,7.8l-28.83,28.83A5.44,5.44,0,0,1,246.86,363.73Zm-9.2-11.86,7.77,7.77a2,2,0,0,0,2.86,0l28.83-28.83a2,2,0,0,0,0-2.86l-7.77-7.77Z"/><path class="cls-2" d="M202.81,306.17h0a.83.83,0,0,1-1.17,0l-14-14,1.17-1.16,14,14A.83.83,0,0,1,202.81,306.17Z"/><path class="cls-2" d="M202.23,307.74a2.15,2.15,0,0,1-1.53-.63l-14-14a1.33,1.33,0,0,1,0-1.88l1.17-1.17a1.37,1.37,0,0,1,1.88,0l14,14a2.16,2.16,0,0,1-1.52,3.68Zm-.37-1.79h0Z"/><path class="cls-2" d="M213.39,293.87h0a.82.82,0,0,1-1.16,0L204.36,286l1.17-1.16,7.86,7.86A.83.83,0,0,1,213.39,293.87Z"/><path class="cls-2" d="M212.81,295.44a2.17,2.17,0,0,1-1.53-.63l-7.86-7.87a1.33,1.33,0,0,1,0-1.88l1.17-1.17a1.33,1.33,0,0,1,1.88,0l7.87,7.87a2.14,2.14,0,0,1,.63,1.52,2.15,2.15,0,0,1-2.16,2.16Z"/><path class="cls-2" d="M229.15,286.74h0a.83.83,0,0,1-1.17,0l-7.86-7.87,1.17-1.16,7.86,7.86A.83.83,0,0,1,229.15,286.74Z"/><path class="cls-2" d="M228.57,288.31a2.15,2.15,0,0,1-1.53-.63l-7.86-7.86a1.32,1.32,0,0,1,0-1.89l1.16-1.17a1.34,1.34,0,0,1,1.89,0l7.86,7.87a2.16,2.16,0,0,1-1.52,3.68Zm-.36-1.8h0Z"/><polygon class="cls-3" points="151.57 267.67 126.62 254.81 138.72 242.72 151.57 267.67"/><polygon class="cls-3" points="180.87 267.67 193.72 242.72 205.82 254.81 180.87 267.67"/><polygon class="cls-3" points="151.57 296.96 138.72 321.91 126.62 309.82 151.57 296.96"/><polygon class="cls-3" points="166.22 259.77 157.67 233.03 174.78 233.03 166.22 259.77"/><polygon class="cls-3" points="143.67 282.31 116.94 290.87 116.94 273.76 143.67 282.31"/></svg>